<?xml version="1.0" encoding="UTF-8" standalone="no"?>
<!-- Created with Inkscape (http://www.inkscape.org/) -->

<svg
   xmlns:dc="http://purl.org/dc/elements/1.1/"
   xmlns:cc="http://creativecommons.org/ns#"
   xmlns:rdf="http://www.w3.org/1999/02/22-rdf-syntax-ns#"
   xmlns:svg="http://www.w3.org/2000/svg"
   xmlns="http://www.w3.org/2000/svg"
   xmlns:sodipodi="http://sodipodi.sourceforge.net/DTD/sodipodi-0.dtd"
   xmlns:inkscape="http://www.inkscape.org/namespaces/inkscape"
   width="224.82347mm"
   height="121.63194mm"
   viewBox="0 0 224.82347 121.63194"
   version="1.1"
   id="svg1956"
   inkscape:version="0.92.3 (2405546, 2018-03-11)"
   sodipodi:docname="grimoirelab-logo.svg">
  <defs
     id="defs1950" />
  <sodipodi:namedview
     id="base"
     pagecolor="#ffffff"
     bordercolor="#666666"
     borderopacity="1.0"
     inkscape:pageopacity="0.0"
     inkscape:pageshadow="2"
     inkscape:zoom="0.7"
     inkscape:cx="595.73513"
     inkscape:cy="-51.424419"
     inkscape:document-units="mm"
     inkscape:current-layer="layer1"
     showgrid="false"
     fit-margin-top="0"
     fit-margin-left="0"
     fit-margin-right="0"
     fit-margin-bottom="0"
     inkscape:window-width="1853"
     inkscape:window-height="1025"
     inkscape:window-x="67"
     inkscape:window-y="27"
     inkscape:window-maximized="1" />
  <metadata
     id="metadata1953">
    <rdf:RDF>
      <cc:Work
         rdf:about="">
        <dc:format>image/svg+xml</dc:format>
        <dc:type
           rdf:resource="http://purl.org/dc/dcmitype/StillImage" />
        <dc:title></dc:title>
      </cc:Work>
    </rdf:RDF>
  </metadata>
  <g
     inkscape:label="Capa 1"
     inkscape:groupmode="layer"
     id="layer1"
     transform="translate(185.13525,10.861611)">
    <g
       id="g2768"
       transform="matrix(0.43957396,0,0,0.43957814,-131.03564,-406.97866)"
       style="stroke-width:0.64203274;enable-background:new">
      <path
         inkscape:connector-curvature="0"
         id="path2770"
         d="m 132.655,901.13 c -58.173,0 -105.333,47.16 -105.333,105.334 0,58.173 47.16,105.332 105.333,105.332 58.174,0 105.335,-47.159 105.335,-105.332 0,-58.174 -47.161,-105.334 -105.335,-105.334 z m -0.691,8.799 c 0,0 1.666,-4.084 3.166,0 1.5,4.082 8.502,24.334 11.418,45.834 0,0 -12.74,5.989 -26,0 0,0 1.748,-23.418 11.416,-45.834 z m -13.68,47.613 c -0.519,6.089 -5.651,9.393 -5.651,9.393 5.35,9.611 20.646,10.818 20.646,10.818 0,0 15.662,-1.109 20.813,-10.83 0,0 -5.203,-3.197 -5.848,-9.273 0,0 31.475,-2.41 58.156,26.857 0,0 -27.693,-12.113 -72.941,0.338 -45.494,-11.512 -72.762,0.754 -72.762,0.754 26.066,-29.813 57.587,-28.057 57.587,-28.057 z m 41.712,34.803 c 7.5,1.26 10.521,0.625 10.521,0.625 3.166,3.5 4.416,6.334 4.416,6.334 0,0 -33.289,-4.854 -40.834,0 1.66,-17.95 22.17,-7.586 25.897,-6.959 z m -27.985,6.959 c -7.543,-4.854 -40.834,0 -40.834,0 0,0 1.25,-2.834 4.416,-6.334 0,0 3.021,0.635 10.521,-0.625 3.729,-0.627 24.238,-10.991 25.897,6.959 z m -38.077,96.324 c -10.339,2.869 -25.5,-28.168 -28.5,-39.168 -14,-5.166 -30.335,-42.499 -24.5,-50.165 19.29,-33.792 75.165,-21 75.165,-21 -40.334,-5.834 -57,9.333 -57,9.333 5.834,-2.833 13.063,-3.625 13.063,-3.625 -15.834,28 -8.396,57.291 -8.396,57.291 -2.334,-45.999 15.169,-58.333 15.169,-58.333 11.165,-3 16.831,0 16.831,0 -16.797,6.237 -18.772,58.704 -7.5,91.667 8.705,25.453 14.834,-22 14.834,-22 -0.179,34.687 -9.166,36 -9.166,36 z m 31.129,-34.846 c 0,0 -19.5,-0.996 -27.75,-5.996 l -9.968,-53.873 c 0,0 19.635,-3.133 38.302,-1.609 0,0 2.041,1.652 7.448,1.688 5.406,-0.036 7.447,-1.688 7.447,-1.688 18.668,-1.523 37.301,1.61 37.303,1.609 l -8.969,53.873 c -8.25,5 -27.75,5.996 -27.75,5.996 -2.359,3.201 -13.703,3.201 -16.063,0 z m 74.901,-4.812 c -3,11 -18.162,42.035 -28.5,39.168 0,0 -8.986,-1.314 -9.166,-36 0,0 6.129,47.451 14.834,22 11.273,-32.965 9.297,-85.43 -7.5,-91.668 0,0 5.666,-3 16.832,0 0,0 17.502,12.334 15.168,58.334 0,0 7.438,-29.291 -8.396,-57.292 0,0 7.229,0.792 13.063,3.625 0,0.001 -16.666,-15.167 -57,-9.333 0,0 55.875,-12.791 75.166,21 5.833,7.666 -10.501,44.998 -24.501,50.166 z"
         style="stroke-width:0.64203274" />
      <polygon
         id="polygon2772"
         points="113.832,1026.866 114.134,1040.808 102.278,1025.257 113.284,1012.737 113.312,1014.54 117.236,1014.499 116.503,1003.665 97.386,1024.728 118.041,1053.19 117.324,1023.341 109.847,1022.874 109.771,1026.585 "
         style="stroke-width:0.64203274" />
      <polygon
         id="polygon2774"
         points="152.191,1012.737 163.197,1025.257 151.339,1040.806 151.644,1026.866 155.705,1026.585 155.628,1022.874 148.152,1023.339 147.435,1053.188 168.089,1024.728 148.972,1003.664 148.24,1014.499 152.164,1014.54 "
         style="stroke-width:0.64203274" />
    </g>
    <text
       id="text1301-7-3-6-9-2-9-1-0-4-1-8"
       y="96.486588"
       x="-177.08148"
       style="font-style:normal;font-weight:normal;font-size:10.58333302px;line-height:0%;font-family:sans-serif;letter-spacing:0px;word-spacing:0px;fill:#000000;fill-opacity:1;stroke:none;stroke-width:0.26458332;enable-background:new"
       xml:space="preserve"><tspan
         style="font-style:normal;font-variant:normal;font-weight:normal;font-stretch:normal;font-family:sans-serif;-inkscape-font-specification:sans-serif;stroke-width:0.26458332"
         y="96.486588"
         x="-177.08148"
         id="tspan1299-5-5-2-1-7-2-9-3-9-7-4">FREE, LIBRE OPEN SOURCE TOOLS FOR</tspan></text>
    <text
       id="text1301-7-3-6-9-2-9-1-0-4-1-8-3"
       y="110.62046"
       x="-185.8949"
       style="font-style:normal;font-weight:normal;font-size:10.58333302px;line-height:0%;font-family:sans-serif;letter-spacing:0px;word-spacing:0px;fill:#000000;fill-opacity:1;stroke:none;stroke-width:0.26458332;enable-background:new"
       xml:space="preserve"><tspan
         style="font-style:normal;font-variant:normal;font-weight:bold;font-stretch:normal;font-family:sans-serif;-inkscape-font-specification:'sans-serif Bold'"
         id="tspan2567">SOFTWARE DEVELOPMENT ANALYTICS</tspan></text>
  </g>
</svg>
